<?xml version="1.0" encoding="utf-8"?>
<!-- Generator: Adobe Illustrator 25.2.3, SVG Export Plug-In . SVG Version: 6.00 Build 0)  -->
<svg version="1.1"
	 id="svg2" sodipodi:docname="SAIC KOVERSE 1C_RGB.eps" xmlns:cc="http://creativecommons.org/ns#" xmlns:dc="http://purl.org/dc/elements/1.1/" xmlns:inkscape="http://www.inkscape.org/namespaces/inkscape" xmlns:rdf="http://www.w3.org/1999/02/22-rdf-syntax-ns#" xmlns:sodipodi="http://sodipodi.sourceforge.net/DTD/sodipodi-0.dtd" xmlns:svg="http://www.w3.org/2000/svg"
	 xmlns="http://www.w3.org/2000/svg" xmlns:xlink="http://www.w3.org/1999/xlink" x="0px" y="0px" viewBox="0 0 175.2 45.7"
	 style="enable-background:new 0 0 175.2 45.7;" xml:space="preserve">
<style type="text/css">
	.st0{fill:#F15D3F;}
	.st1{fill:#FFFFFF;}
</style>
<g>
	<g>
		<g>
			<polygon class="st0" points="23.1,2.4 16,2.4 7.4,13.8 7.4,2.4 1.6,2.4 1.6,27.4 7.4,27.4 7.4,20.1 9.6,17.5 16.5,27.4 
				23.7,27.4 13.4,14.1 			"/>
			<polygon class="st1" points="62.5,21.8 55.9,2.4 49.2,2.4 58.6,27.4 66.5,27.4 75.9,2.4 69.2,2.4 			"/>
			<polygon class="st1" points="78,27.4 96.1,27.4 96.1,22.4 83.9,22.4 83.9,17.2 95.9,17.2 95.9,12.2 83.9,12.2 83.9,7.4 96.1,7.4 
				96.1,2.4 78,2.4 			"/>
			<path class="st1" d="M121.6,10.6c0-4.9-3.5-8.2-8.6-8.2h-12.5v25h5.9v-8.7h4l4.3,8.7h6.7l-5.2-9.3l0.4-0.2
				C117.9,17.6,121.6,15.9,121.6,10.6z M112,13.7h-5.7V7.4h5.7c2.2,0,3.6,1.3,3.6,3.1C115.6,12.5,114.2,13.7,112,13.7z"/>
			<path class="st1" d="M135.2,11.8c-2.6-0.6-4.7-1-4.7-2.5c0-1,0.6-2.2,3.2-2.2c2.7,0,5.4,0.9,7.5,2.5l3.2-4.4
				c-2.6-2.1-6.1-3.3-10-3.3c-5.8,0-9.9,3.2-9.9,7.8c0,6,5.4,7.1,9.8,8c2.7,0.6,4.8,1,4.8,2.6c0,1.5-1.5,2.4-4,2.4
				c-4,0-6.8-1.9-8.2-3.2l-3.1,4.5c2.8,2.5,6.5,3.8,10.9,3.8c6.5,0,10.4-3.1,10.4-8.2C145.1,13.9,139.4,12.7,135.2,11.8z"/>
			<polygon class="st1" points="166.6,7.4 166.6,2.4 148.5,2.4 148.5,27.4 166.6,27.4 166.6,22.4 154.3,22.4 154.3,17.2 166.3,17.2 
				166.3,12.2 154.3,12.2 154.3,7.4 			"/>
			<path class="st1" d="M49.5,14.9c0-7-4.9-12.2-11.8-12.9v5.2c3.5,0.7,5.8,3.7,5.8,7.7c0,4-2.4,7-5.8,7.7v5.2
				C44.6,27.1,49.5,21.9,49.5,14.9z"/>
			<path class="st0" d="M28.7,14.9c0-4,2.4-7,5.8-7.7V2c-6.9,0.7-11.8,5.9-11.8,12.9c0,7,4.9,12.2,11.8,12.9v-5.2
				C31.1,21.9,28.7,18.9,28.7,14.9z"/>
		</g>
		<g>
			<path class="st1" d="M7.3,33.4l4.6,10.4h-2L8.7,41H4.3l-1.1,2.7h-2l4.5-10.4H7.3z M4.9,39.6H8l-1.6-3.7L4.9,39.6z"/>
			<path class="st1" d="M16.4,33.5l6.4,7.3v-7.3h2v10.3H23l-6.3-7.2v7.2h-1.9V33.5H16.4z"/>
			<path class="st1" d="M40.2,34.1V36c-0.4-0.3-0.8-0.6-1.3-0.8c-0.4-0.2-0.9-0.3-1.3-0.3c-0.5,0-0.8,0.1-1,0.3
				c-0.2,0.2-0.3,0.5-0.3,0.8c0,0.6,0.4,1.1,1.3,1.5c0.9,0.4,1.6,0.9,2.2,1.4c0.6,0.5,0.9,1.2,0.9,2.1c0,0.8-0.3,1.5-0.9,2
				c-0.6,0.5-1.4,0.8-2.3,0.8c-0.5,0-1.1-0.1-1.6-0.2c-0.5-0.2-1-0.4-1.5-0.7v-2.1c0.9,0.9,1.9,1.4,2.9,1.4c0.5,0,0.8-0.1,1.1-0.3
				c0.3-0.2,0.4-0.5,0.4-0.8c0-0.4-0.2-0.8-0.5-1.1c-0.4-0.3-0.9-0.6-1.6-1s-1.3-0.8-1.7-1.3s-0.5-1-0.5-1.7c0-0.8,0.3-1.4,0.9-1.9
				s1.4-0.8,2.3-0.8c0.5,0,1,0.1,1.4,0.2C39.4,33.7,39.8,33.9,40.2,34.1z"/>
			<path class="st1" d="M49.2,33.4l4.6,10.4h-2L50.5,41h-4.4L45,43.8h-2l4.5-10.4H49.2z M46.7,39.6h3.1l-1.6-3.7L46.7,39.6z"/>
			<path class="st1" d="M58.5,33.5v10.3h-2V33.5H58.5z"/>
			<path class="st1" d="M71.4,34.1v1.9c-0.6-0.3-1.1-0.6-1.7-0.8c-0.6-0.2-1.2-0.3-1.8-0.3c-1.1,0-2.1,0.3-2.8,1.1
				c-0.7,0.7-1.1,1.6-1.1,2.6c0,1,0.3,1.8,1,2.5c0.7,0.7,1.6,1,2.8,1c0.7,0,1.3-0.1,1.9-0.3c0.6-0.2,1.2-0.5,1.7-0.8V43
				c-0.6,0.3-1.2,0.6-1.8,0.7c-0.6,0.1-1.3,0.2-2,0.2c-1.7,0-3-0.5-4.1-1.5c-1-1-1.6-2.3-1.6-3.8c0-1.5,0.5-2.8,1.6-3.8
				c1.1-1,2.4-1.5,4-1.5c0.6,0,1.2,0.1,1.8,0.2C70.1,33.7,70.7,33.9,71.4,34.1z"/>
			<path class="st1" d="M89.8,34.1v1.9c-0.6-0.3-1.1-0.6-1.7-0.8c-0.6-0.2-1.2-0.3-1.8-0.3c-1.1,0-2.1,0.3-2.8,1.1
				c-0.7,0.7-1.1,1.6-1.1,2.6c0,1,0.3,1.8,1,2.5c0.7,0.7,1.6,1,2.8,1c0.7,0,1.3-0.1,1.9-0.3c0.6-0.2,1.2-0.5,1.7-0.8V43
				c-0.6,0.3-1.2,0.6-1.8,0.7c-0.6,0.1-1.3,0.2-2,0.2c-1.7,0-3-0.5-4.1-1.5c-1-1-1.6-2.3-1.6-3.8c0-1.5,0.5-2.8,1.6-3.8
				c1.1-1,2.4-1.5,4-1.5c0.6,0,1.2,0.1,1.8,0.2C88.5,33.7,89.2,33.9,89.8,34.1z"/>
			<path class="st1" d="M102.5,42.4c-1,1-2.4,1.5-4.1,1.5c-1.6,0-3-0.5-4-1.5c-1-1-1.6-2.3-1.6-3.8c0-1.5,0.5-2.7,1.5-3.8
				c1-1,2.4-1.5,4.1-1.5c1.6,0,3,0.5,4,1.5c1.1,1,1.6,2.3,1.6,3.8C104.1,40.1,103.5,41.4,102.5,42.4z M95.9,41.1
				c0.7,0.7,1.5,1,2.5,1c1.1,0,2-0.3,2.6-0.9c0.7-0.6,1-1.5,1-2.6c0-1-0.3-1.8-1-2.5c-0.7-0.7-1.5-1-2.6-1c-1.1,0-2,0.3-2.6,1
				c-0.7,0.7-1,1.5-1,2.5C94.9,39.6,95.2,40.5,95.9,41.1z"/>
			<path class="st1" d="M109.4,33.5l3.3,4.1l3.3-4.1h1.8v10.3h-2v-7.4l-3,3.8h-0.3l-3.1-3.8v7.4h-2V33.5H109.4z"/>
			<path class="st1" d="M125.5,33.5c1.1,0,2,0.3,2.6,0.8c0.6,0.5,0.9,1.3,0.9,2.2c0,0.9-0.3,1.7-0.9,2.2c-0.6,0.5-1.5,0.8-2.7,0.8
				h-1.6v4.3h-2V33.5H125.5z M123.8,38h1.3c0.7,0,1.1-0.1,1.4-0.4c0.3-0.2,0.5-0.6,0.5-1.1c0-0.5-0.1-0.9-0.4-1.1
				c-0.3-0.3-0.8-0.4-1.5-0.4h-1.3L123.8,38L123.8,38z"/>
			<path class="st1" d="M136.5,33.4l4.6,10.4h-2l-1.2-2.7h-4.4l-1.1,2.7h-2l4.5-10.4L136.5,33.4L136.5,33.4z M134.1,39.6h3.1
				l-1.6-3.7L134.1,39.6z"/>
			<path class="st1" d="M145.6,33.5l6.4,7.3v-7.3h2v10.3h-1.8l-6.3-7.2v7.2h-1.9V33.5H145.6z"/>
			<path class="st1" d="M158.9,33.5l2.6,3.5l2.7-3.5h2.3l-3.9,5.1v5.2h-2v-5.2l-3.9-5.1L158.9,33.5L158.9,33.5z"/>
		</g>
	</g>
	<g>
		<path class="st1" d="M172.6,23.1c0.5,0.5,0.7,1.1,0.7,1.8c0,0.7-0.2,1.3-0.7,1.8c-0.5,0.5-1.1,0.7-1.8,0.7c-0.7,0-1.3-0.2-1.8-0.7
			c-0.5-0.5-0.7-1.1-0.7-1.8c0-0.7,0.2-1.3,0.7-1.8s1.1-0.7,1.8-0.7C171.5,22.4,172.1,22.6,172.6,23.1z M172.4,26.5
			c0.4-0.4,0.7-1,0.7-1.6c0-0.6-0.2-1.1-0.7-1.6c-0.4-0.4-1-0.7-1.6-0.7c-0.6,0-1.1,0.2-1.6,0.7c-0.4,0.4-0.7,1-0.7,1.6
			c0,0.6,0.2,1.1,0.7,1.6c0.4,0.4,1,0.7,1.6,0.7C171.4,27.1,171.9,26.9,172.4,26.5z M169.7,23.5h1.2c0.3,0,0.6,0.1,0.7,0.2
			c0.2,0.1,0.3,0.3,0.3,0.6c0,0.2-0.1,0.4-0.2,0.5c-0.1,0.1-0.3,0.2-0.6,0.3c0.1,0,0.2,0.1,0.3,0.2c0.1,0.1,0.2,0.2,0.2,0.3l0.5,0.8
			h-0.7l-0.4-0.7c-0.1-0.2-0.2-0.3-0.3-0.4c-0.1,0-0.2-0.1-0.3-0.1h-0.2v1.1h-0.6V23.5z M170.7,24.8c0.2,0,0.3,0,0.4-0.1
			c0.1-0.1,0.2-0.2,0.2-0.3c0-0.3-0.2-0.4-0.6-0.4h-0.4v0.9H170.7z"/>
	</g>
</g>
</svg>
